<?xml version="1.0" encoding="utf-8"?>
<!-- Generator: Adobe Illustrator 16.0.0, SVG Export Plug-In . SVG Version: 6.00 Build 0)  -->
<!DOCTYPE svg PUBLIC "-//W3C//DTD SVG 1.1//EN" "http://www.w3.org/Graphics/SVG/1.1/DTD/svg11.dtd">
<svg version="1.1" id="圖層_1" xmlns="http://www.w3.org/2000/svg" xmlns:xlink="http://www.w3.org/1999/xlink" x="0px" y="0px"
	 width="960px" height="560px" viewBox="0 0 960 560" enable-background="new 0 0 960 560" xml:space="preserve">
<path fill="#FFFFFF" d="M743.594,298.594l-183.75,183.75C543.437,498.75,515,487.266,515,463.75v-105H366.25
	c-14.547,0-26.25-11.703-26.25-26.25v-105c0-14.547,11.703-26.25,26.25-26.25H515v-105c0-23.406,28.328-35,44.844-18.594
	l183.75,183.75C753.765,271.688,753.765,288.313,743.594,298.594z M410,476.875v-43.75c0-7.219-5.906-13.125-13.125-13.125H305
	c-19.359,0-35-15.641-35-35V175c0-19.359,15.641-35,35-35h91.875c7.219,0,13.125-5.906,13.125-13.125v-43.75
	C410,75.906,404.094,70,396.875,70H305c-57.969,0-105,47.031-105,105v210c0,57.969,47.031,105,105,105h91.875
	C404.094,490,410,484.094,410,476.875z"/>
</svg>
